# xmcd CD database file
#
# Track frame offsets:
#	150
#	13689
#	26725
#	42553
#	55979
#	68202
#	81992
#	96632
#	113876
#	128713
#	140461
#	153313
#	169196
#	182469
#	195995
#	210530
#	228059
#	241682
#	256187
#	271701
#	287145
#	306857
#	320445
#	331597
#
# Disc length: 4780 seconds
#
# Revision: 0
# Processed by: cddbd v1.5.2PL0 Copyright (c) Steve Scherf et al.
# Submitted via: jetAudio 7
#
DISCID=4812aa18
DTITLE=GUILHERME E SANTIAGO - TOUR 2010
DYEAR=1900
DGENRE=Country
TTITLE0=METE SUA BOCA
TTITLE1=POR ISSO
TTITLE2=CORAÇÃO SEM JUÍZO
TTITLE3=O MUNDO GIRA (AGORA É TARDE)
TTITLE4=TÁ SE ACHANDO
TTITLE5=SOLTEIRO SIM, SOZINHO NUNCA
TTITLE6=NOITES
TTITLE7=SE VOCÊ NÃO ME AMA
TTITLE8=QUE DÁ VONTADE DÁ
TTITLE9=ME LEVA
TTITLE10=SAFADA, CACHORRA, BANDIDA
TTITLE11=TÔ PRA LÁ DE BAGDÁ
TTITLE12=NA HORA CERA
TTITLE13=APENAS BONS AMIGOS
TTITLE14=O BATIDÃO DE GOIÁS
TTITLE15=O AMOR QUE EU SONHEI
TTITLE16=TUDO TEM UM PORQUÊ
TTITLE17=CORAÇÃO MUDOU (EU QUERO VER)
TTITLE18=QUER BEIJAR NA BOCA
TTITLE19=DEIXA DE ORGULHO
TTITLE20=POT-POURRI: A NOITE DO NOSSO AMOR - NOITE MARAVILHOSA
TTITLE21=O ÊXTASE DO AMOR
TTITLE22=E DAÍ?
TTITLE23=AMIZADE SINCERA
EXTD=
EXTT0=
EXTT1=
EXTT2=
EXTT3=
EXTT4=
EXTT5=
EXTT6=
EXTT7=
EXTT8=
EXTT9=
EXTT10=
EXTT11=
EXTT12=
EXTT13=
EXTT14=
EXTT15=
EXTT16=
EXTT17=
EXTT18=
EXTT19=
EXTT20=
EXTT21=
EXTT22=
EXTT23=
PLAYORDER=
